<svg fill="none" xmlns="http://www.w3.org/2000/svg" viewBox="0 0 1037 232">
    <path
        d="M79.872 212.64C30.208 212.64 0 177.312 0 116.896 0 61.6 35.072 19.36 86.784 19.36c41.984 0 73.984 24.832 77.056 60.16h-38.4c-4.352-18.432-20.224-29.952-39.168-29.952-29.184 0-47.36 26.88-47.36 68.352 0 39.424 17.408 64.512 45.568 64.512 21.76 0 42.496-14.08 42.496-41.216v-4.096H89.344v-30.976h73.472v102.912h-31.744v-21.248c-9.216 15.36-30.464 24.832-51.2 24.832zm105.384-3.584V76.96h33.536v17.408c9.472-12.544 25.088-19.712 41.728-19.712 37.888 0 44.288 26.88 44.288 60.928v73.472h-36.096V135.84c0-19.456-3.328-34.048-21.248-34.048-16.896 0-26.112 11.264-26.112 41.984v65.28h-36.096zm201.462 3.584c-40.96 0-67.072-27.392-67.072-69.632 0-42.24 26.112-69.632 67.072-69.632 41.216 0 67.328 27.648 67.328 69.632 0 42.24-26.112 69.632-67.328 69.632zm0-27.392c19.456 0 29.696-16.128 29.696-42.24 0-26.624-10.24-42.24-29.696-42.24-19.2 0-29.44 15.872-29.44 42.24 0 26.112 10.24 42.24 29.44 42.24zm136.926 27.392c-38.144 0-60.16-15.104-60.672-45.824h36.864c0 14.08 7.936 20.736 23.552 20.736 12.288 0 21.248-5.376 21.248-13.824 0-9.216-9.472-13.056-21.504-16.128-11.008-2.816-24.576-5.12-35.584-10.496-12.288-5.888-22.016-15.36-22.016-32.256 0-25.344 22.272-41.472 57.344-41.472 36.352 0 56.576 15.104 56.576 44.032h-35.84c-.768-14.336-7.936-18.944-22.016-18.944-11.52 0-19.2 4.864-19.2 12.8 0 10.752 8.96 13.312 40.704 19.968 26.88 5.632 39.424 18.688 39.424 38.656 0 26.368-22.272 42.752-58.88 42.752zm76.132-3.584V76.96h36.096v132.096h-36.096zm0-151.04V23.2h36.096v34.816h-36.096zM713.094 212.64c-38.144 0-60.16-15.104-60.672-45.824h36.864c0 14.08 7.936 20.736 23.552 20.736 12.288 0 21.248-5.376 21.248-13.824 0-9.216-9.472-13.056-21.504-16.128-11.008-2.816-24.576-5.12-35.584-10.496-12.288-5.888-22.016-15.36-22.016-32.256 0-25.344 22.272-41.472 57.344-41.472 36.352 0 56.576 15.104 56.576 44.032h-35.84c-.768-14.336-7.936-18.944-22.016-18.944-11.52 0-19.2 4.864-19.2 12.8 0 10.752 8.96 13.312 40.704 19.968 26.88 5.632 39.424 18.688 39.424 38.656 0 26.368-22.272 42.752-58.88 42.752zM998.795 101.9c0-7.017-2.31-13.398-6.303-18.458l-42.27 42.25c5.148 3.993 11.539 6.303 18.468 6.303 16.697-.01 30.193-13.496 30.105-30.095zM873.06 131.897c-16.608.088-30.105-13.408-30.105-30.095 0-6.919 2.31-13.31 6.303-18.458l42.271 42.25c-5.06 3.993-11.451 6.303-18.469 6.303zm-32.679-57.253c-6.214 7.457-9.943 16.863-9.943 27.334 0 23.518 19.094 42.602 42.622 42.602 10.385 0 19.888-3.728 27.345-9.943l20.514 20.503 20.514-20.503c7.458 6.215 16.873 9.943 27.345 9.943 23.528 0 42.622-19.084 42.622-42.602 0-10.383-3.73-19.886-9.94-27.334l9.59-9.581 9.14-9.141c10.66 17.567 16.78 38.07 16.78 60.091 0 64.084-51.936 115.924-115.963 115.924-64.017 0-115.967-51.928-115.967-115.924-.176-22.099 5.951-42.602 16.609-60.091l18.732 18.722zm80.626 62.753l92.003-91.957a136.622 136.622 0 00-8.18-9.493C983.703 13.848 953.95 0 920.919 0s-62.862 13.848-83.914 35.947c-2.926 2.926-5.686 6.215-7.996 9.405l91.998 92.045zm71.221-92.75l-71.299 71.278-71.299-71.278c18.909-19.084 44.13-29.556 71.299-29.556 27.169 0 52.292 10.472 71.299 29.556z"
        fill="#fff" />
</svg>